<mxfile host="Electron" agent="Mozilla/5.0 (Windows NT 10.0; Win64; x64) AppleWebKit/537.36 (KHTML, like Gecko) draw.io/27.0.5 Chrome/134.0.6998.205 Electron/35.3.0 Safari/537.36" version="27.0.5">
  <diagram name="Trang-1" id="33_Usblemns8LCE5QCe4">
    <mxGraphModel dx="1042" dy="626" grid="1" gridSize="10" guides="1" tooltips="1" connect="1" arrows="1" fold="1" page="1" pageScale="1" pageWidth="827" pageHeight="1169" math="0" shadow="0">
      <root>
        <mxCell id="0" />
        <mxCell id="1" parent="0" />
        <mxCell id="DfNLflv0MyVF8GnNlcwx-5" style="edgeStyle=orthogonalEdgeStyle;rounded=0;orthogonalLoop=1;jettySize=auto;html=1;entryX=0;entryY=0.5;entryDx=0;entryDy=0;labelBackgroundColor=none;strokeColor=#E07A5F;fontColor=default;" parent="1" source="DfNLflv0MyVF8GnNlcwx-1" target="DfNLflv0MyVF8GnNlcwx-3" edge="1">
          <mxGeometry relative="1" as="geometry">
            <mxPoint x="240" y="255" as="targetPoint" />
          </mxGeometry>
        </mxCell>
        <mxCell id="DfNLflv0MyVF8GnNlcwx-1" value="IMG&lt;br&gt;&lt;div&gt;(640X640)&lt;/div&gt;" style="whiteSpace=wrap;html=1;aspect=fixed;labelBackgroundColor=none;fillColor=#F2CC8F;strokeColor=#E07A5F;fontColor=#393C56;" parent="1" vertex="1">
          <mxGeometry x="40" y="190" width="130" height="130" as="geometry" />
        </mxCell>
        <mxCell id="DfNLflv0MyVF8GnNlcwx-12" style="edgeStyle=orthogonalEdgeStyle;rounded=0;orthogonalLoop=1;jettySize=auto;html=1;entryX=0;entryY=0.5;entryDx=0;entryDy=0;strokeColor=#E07A5F;fontColor=#393C56;fillColor=#F2CC8F;" parent="1" source="DfNLflv0MyVF8GnNlcwx-3" target="DfNLflv0MyVF8GnNlcwx-9" edge="1">
          <mxGeometry relative="1" as="geometry" />
        </mxCell>
        <mxCell id="DfNLflv0MyVF8GnNlcwx-3" value="YOLO_V5s" style="whiteSpace=wrap;html=1;aspect=fixed;labelBackgroundColor=none;fillColor=#F2CC8F;strokeColor=#E07A5F;fontColor=#393C56;" parent="1" vertex="1">
          <mxGeometry x="240" y="190" width="130" height="130" as="geometry" />
        </mxCell>
        <mxCell id="zXiZKMlB-WN5VZIoeEiZ-8" style="edgeStyle=orthogonalEdgeStyle;rounded=0;orthogonalLoop=1;jettySize=auto;html=1;entryX=0;entryY=0.5;entryDx=0;entryDy=0;" edge="1" parent="1" source="DfNLflv0MyVF8GnNlcwx-4" target="DfNLflv0MyVF8GnNlcwx-7">
          <mxGeometry relative="1" as="geometry" />
        </mxCell>
        <mxCell id="DfNLflv0MyVF8GnNlcwx-4" value="RESNET_18 OR&amp;nbsp;&lt;span style=&quot;font-family: &amp;quot;Times New Roman&amp;quot;; background-color: transparent; color: light-dark(rgb(0, 0, 0), rgb(255, 255, 255)); font-size: 12pt;&quot;&gt;Efficientnet&lt;/span&gt;&lt;div&gt;&lt;span style=&quot;font-size: 12pt; background-color: transparent; color: light-dark(rgb(0, 0, 0), rgb(255, 255, 255));&quot;&gt;&lt;font face=&quot;Times New Roman&quot;&gt;B0&lt;/font&gt;&lt;/span&gt;&lt;/div&gt;&lt;div&gt;&lt;span style=&quot;font-size: 12pt; background-color: transparent; color: light-dark(rgb(0, 0, 0), rgb(255, 255, 255));&quot;&gt;&lt;font face=&quot;Times New Roman&quot;&gt;(student model)&lt;/font&gt;&lt;/span&gt;&lt;/div&gt;" style="whiteSpace=wrap;html=1;aspect=fixed;align=center;labelBackgroundColor=none;fillColor=#F2CC8F;strokeColor=#E07A5F;fontColor=#393C56;" parent="1" vertex="1">
          <mxGeometry x="590" y="190" width="130" height="130" as="geometry" />
        </mxCell>
        <mxCell id="DfNLflv0MyVF8GnNlcwx-7" value="OUTPUT&amp;nbsp;&lt;div&gt;(BBOX + CLASS)&lt;/div&gt;" style="rounded=0;whiteSpace=wrap;html=1;labelBackgroundColor=none;fillColor=#F2CC8F;strokeColor=#E07A5F;fontColor=#393C56;" parent="1" vertex="1">
          <mxGeometry x="830" y="225" width="120" height="60" as="geometry" />
        </mxCell>
        <mxCell id="DfNLflv0MyVF8GnNlcwx-13" style="edgeStyle=orthogonalEdgeStyle;rounded=0;orthogonalLoop=1;jettySize=auto;html=1;entryX=0;entryY=0.5;entryDx=0;entryDy=0;strokeColor=#E07A5F;fontColor=#393C56;fillColor=#F2CC8F;" parent="1" source="DfNLflv0MyVF8GnNlcwx-9" target="DfNLflv0MyVF8GnNlcwx-4" edge="1">
          <mxGeometry relative="1" as="geometry" />
        </mxCell>
        <mxCell id="zXiZKMlB-WN5VZIoeEiZ-3" style="edgeStyle=orthogonalEdgeStyle;rounded=0;orthogonalLoop=1;jettySize=auto;html=1;" edge="1" parent="1" source="DfNLflv0MyVF8GnNlcwx-9" target="zXiZKMlB-WN5VZIoeEiZ-2">
          <mxGeometry relative="1" as="geometry">
            <mxPoint x="449" y="80" as="targetPoint" />
            <Array as="points">
              <mxPoint x="460" y="90" />
            </Array>
          </mxGeometry>
        </mxCell>
        <mxCell id="DfNLflv0MyVF8GnNlcwx-9" value="IMG&lt;div&gt;(224X224)&lt;/div&gt;" style="rounded=0;whiteSpace=wrap;html=1;labelBackgroundColor=none;fillColor=#F2CC8F;strokeColor=#E07A5F;fontColor=#393C56;" parent="1" vertex="1">
          <mxGeometry x="414" y="235" width="70" height="40" as="geometry" />
        </mxCell>
        <mxCell id="zXiZKMlB-WN5VZIoeEiZ-2" value="VIT_BASE finetuning&lt;div&gt;(teacher model)&lt;/div&gt;" style="rounded=0;whiteSpace=wrap;html=1;labelBackgroundColor=none;fillColor=#F2CC8F;strokeColor=#E07A5F;fontColor=#393C56;" vertex="1" parent="1">
          <mxGeometry x="590" y="60" width="130" height="60" as="geometry" />
        </mxCell>
        <mxCell id="zXiZKMlB-WN5VZIoeEiZ-5" style="edgeStyle=orthogonalEdgeStyle;rounded=0;orthogonalLoop=1;jettySize=auto;html=1;entryX=1.009;entryY=0.175;entryDx=0;entryDy=0;entryPerimeter=0;" edge="1" parent="1" source="zXiZKMlB-WN5VZIoeEiZ-2" target="DfNLflv0MyVF8GnNlcwx-4">
          <mxGeometry relative="1" as="geometry">
            <Array as="points">
              <mxPoint x="780" y="90" />
              <mxPoint x="780" y="213" />
            </Array>
          </mxGeometry>
        </mxCell>
        <mxCell id="zXiZKMlB-WN5VZIoeEiZ-6" value="knowlege distillation" style="rounded=0;whiteSpace=wrap;html=1;labelBackgroundColor=none;fillColor=#F2CC8F;strokeColor=#E07A5F;fontColor=#393C56;" vertex="1" parent="1">
          <mxGeometry x="747" y="130" width="80" height="40" as="geometry" />
        </mxCell>
      </root>
    </mxGraphModel>
  </diagram>
</mxfile>
